<?xml version="1.0" standalone="no"?>
<!DOCTYPE svg PUBLIC "-//W3C//DTD SVG 20010904//EN"
 "http://www.w3.org/TR/2001/REC-SVG-20010904/DTD/svg10.dtd">
<svg version="1.0" xmlns="http://www.w3.org/2000/svg"
 width="448.000000pt" height="352.000000pt" viewBox="0 0 448.000000 352.000000"
 preserveAspectRatio="xMidYMid meet">

<g transform="translate(0.000000,352.000000) scale(0.100000,-0.100000)"
fill="#000000" stroke="none">
<path d="M0 1760 l0 -1760 2240 0 2240 0 0 1760 0 1760 -2240 0 -2240 0 0
-1760z m2380 1220 c55 -15 80 -44 80 -91 0 -22 -4 -48 -10 -58 -16 -31 -64
-44 -130 -37 l-59 7 -6 -38 c-12 -76 -12 -84 -4 -89 20 -12 7 -20 -26 -16 -35
4 -60 22 -31 22 9 0 16 2 16 4 0 3 9 68 21 146 17 118 18 144 7 157 -12 15 -7
16 47 9 33 -4 76 -11 95 -16z m-586 -170 c54 -66 109 -129 122 -139 l23 -18
-35 -11 c-31 -9 -34 -8 -30 6 3 9 -6 30 -19 47 l-24 29 -73 -23 c-40 -13 -76
-29 -80 -35 -13 -20 -9 -66 7 -72 22 -9 18 -21 -9 -28 -13 -3 -32 -9 -43 -13
-16 -6 -16 -5 -4 11 10 12 17 66 23 179 5 89 11 168 13 175 10 28 36 6 129
-108z m1134 -40 c51 -32 92 -63 92 -68 0 -5 -7 -15 -15 -22 -13 -11 -14 -10
-9 3 4 12 -11 27 -58 57 -34 22 -67 40 -73 40 -11 0 -65 -81 -65 -98 0 -6 20
-23 45 -38 43 -24 58 -44 34 -44 -5 0 -27 11 -47 25 -20 14 -42 25 -48 25 -15
0 -76 -100 -70 -115 2 -7 32 -29 66 -50 49 -30 63 -35 75 -25 18 15 19 1 1
-22 -12 -16 -21 -12 -111 45 -53 34 -91 63 -84 65 19 4 164 237 163 262 0 11
2 20 5 20 4 0 48 -27 99 -60z m-1637 -151 c17 -18 29 -42 29 -58 0 -30 -36
-84 -77 -117 l-27 -21 38 -47 c23 -27 47 -46 59 -46 20 0 20 -1 -3 -25 -25
-27 -42 -33 -34 -12 6 17 -192 227 -214 227 -11 0 -6 11 19 36 94 100 158 119
210 63z m2043 -227 c24 -22 56 -86 56 -111 0 -11 -9 -25 -20 -31 -21 -11 -27
-1 -9 17 8 8 6 23 -8 54 -25 55 -44 71 -80 67 -43 -5 -53 -36 -36 -116 20 -98
-4 -151 -70 -152 -45 0 -83 26 -106 73 -24 50 -26 68 -9 85 19 19 24 14 21
-20 -5 -40 26 -93 62 -110 22 -10 30 -8 53 9 34 26 37 42 22 125 -10 52 -10
74 -2 93 21 46 84 54 126 17z m-2345 -245 c78 -41 135 -65 145 -61 20 8 20 1
-1 -39 -13 -24 -18 -28 -21 -15 -5 24 -246 152 -273 145 -23 -6 -23 -4 -2 36
12 22 18 27 20 16 2 -9 62 -46 132 -82z m1091 87 c0 -4 -56 -169 -125 -368
-69 -200 -125 -366 -125 -369 0 -4 20 -7 46 -7 54 0 37 -37 177 375 58 171
111 325 117 343 l12 32 164 0 c90 0 164 -3 164 -7 0 -5 -38 -118 -84 -253
l-84 -245 -53 3 c-104 6 -190 -43 -235 -133 -23 -48 -26 -64 -22 -123 8 -106
49 -165 146 -210 45 -20 63 -23 104 -18 28 4 67 15 87 26 71 36 131 121 131
185 0 25 0 25 89 25 l89 0 14 43 c14 41 16 42 61 45 26 2 47 -1 46 -5 0 -4
-28 -87 -62 -183 l-62 -175 -584 -3 c-531 -2 -583 -1 -577 14 3 9 9 26 12 39
5 22 12 24 67 27 l62 3 162 470 c89 259 162 471 162 473 2 5 101 2 101 -4z
m1295 -409 c199 -42 220 -49 220 -71 0 -14 -37 -40 -139 -100 -77 -45 -145
-89 -151 -98 -12 -15 -13 -15 -19 0 -3 8 -6 27 -6 42 0 19 3 23 11 15 9 -9 20
-7 45 5 26 12 34 22 34 42 0 30 -18 131 -24 138 -3 2 -23 6 -45 9 -31 4 -41 2
-41 -8 0 -11 -2 -11 -10 1 -5 8 -10 29 -10 45 0 18 3 25 8 18 4 -7 62 -24 127
-38z m-2357 -14 c11 -6 10 -27 -3 -111 -8 -57 -15 -107 -15 -112 0 -5 -10 -2
-22 6 -13 7 -83 21 -156 31 -111 14 -135 15 -149 3 -15 -12 -16 -10 -10 12 4
14 7 34 7 44 0 17 2 18 18 4 16 -14 209 -48 274 -48 23 0 27 5 33 43 3 23 9
57 12 74 4 24 1 34 -11 39 -9 3 -16 10 -16 15 0 11 21 11 38 0z"/>
<path d="M2286 2962 c-4 -6 -9 -40 -13 -75 l-6 -64 51 -7 c84 -11 112 9 112
80 0 24 -6 38 -23 49 -30 19 -112 31 -121 17z"/>
<path d="M1687 2883 c-4 -3 -7 -47 -7 -96 0 -67 3 -88 13 -85 6 3 36 13 65 22
28 10 52 20 52 22 0 5 -111 144 -114 144 -2 0 -6 -3 -9 -7z"/>
<path d="M1147 2589 c-20 -17 -37 -35 -37 -41 0 -16 80 -108 95 -108 7 0 29
18 49 40 43 48 47 86 13 118 -33 31 -75 28 -120 -9z"/>
<path d="M3374 1764 c3 -16 8 -46 12 -66 3 -21 10 -38 15 -38 13 0 159 83 159
90 0 4 -29 12 -65 18 -36 7 -79 15 -96 19 -30 6 -31 5 -25 -23z"/>
</g>
</svg>
